<?xml version="1.0" encoding="UTF-8"?>
<svg id="Layer_1" data-name="Layer 1" xmlns="http://www.w3.org/2000/svg" viewBox="0 0 21.75 22.52">
  <defs>
    <style>
      .cls-1 {
        fill: #131313;
        stroke-width: 0px;
      }
    </style>
  </defs>
  <path class="cls-1" d="M8.13,13.38c-2.51,0-4.55-2.04-4.55-4.55s2.04-4.55,4.55-4.55,4.55,2.04,4.55,4.55-2.04,4.55-4.55,4.55ZM8.13,6.29c-1.4,0-2.55,1.14-2.55,2.55s1.14,2.55,2.55,2.55,2.55-1.14,2.55-2.55-1.14-2.55-2.55-2.55Z"/>
  <path class="cls-1" d="M13.61.96c-1.97,0-3.64,1.27-4.26,3.02.68.11,1.31.35,1.86.72.34-1.01,1.28-1.75,2.4-1.75,1.4,0,2.55,1.14,2.55,2.55s-1.14,2.55-2.55,2.55c-.16,0-.31-.02-.46-.05.02.15.05.3.05.45,0,.54-.11,1.04-.28,1.52.23.04.46.07.7.07,2.51,0,4.55-2.04,4.55-4.55S16.12.96,13.61.96Z"/>
  <path class="cls-1" d="M15.16,21.34c-.55,0-1-.45-1-1v-1.58c0-1.24-.94-2.25-2.09-2.25h-7.88c-1.15,0-2.09,1.01-2.09,2.25v1.58c0,.55-.45,1-1,1s-1-.45-1-1v-1.58c0-2.34,1.83-4.25,4.09-4.25h7.88c2.25,0,4.09,1.91,4.09,4.25v1.58c0,.55-.45,1-1,1Z"/>
  <path class="cls-1" d="M17.55,11.18h-4.95c-.37.83-.99,1.52-1.75,2h6.7c1.15,0,2.09,1.01,2.09,2.25v1.58c0,.55.45,1,1,1s1-.45,1-1v-1.58c0-2.34-1.83-4.25-4.09-4.25Z"/>
</svg>