<?xml version="1.0" encoding="UTF-8"?>
<svg id="Layer_1" data-name="Layer 1" xmlns="http://www.w3.org/2000/svg" viewBox="0 0 24.98 24.98">
  <defs>
    <style>
      .cls-1 {
        stroke: #0d0b0b;
        stroke-linecap: round;
        stroke-linejoin: round;
      }

      .cls-1, .cls-2 {
        fill: none;
      }

      .cls-2 {
        stroke-width: 0px;
      }
    </style>
  </defs>
  <circle class="cls-2" cx="12.1" cy="12.87" r="9.19"/>
  <path class="cls-1" d="M10.93,2.86l1.21-2.01c.46.66.91,1.31,1.37,1.97"/>
  <path class="cls-1" d="M13.7,2.85l1.84-1.46c.2.77.39,1.55.59,2.32"/>
  <path class="cls-1" d="M16.31,3.77l2.17-.91c-.02.8-.04,1.6-.06,2.4"/>
  <path class="cls-1" d="M18.47,5.41l2.34-.15c-.28.75-.56,1.5-.83,2.25"/>
  <path class="cls-1" d="M20.13,7.5l2.3.47c-.47.65-.93,1.3-1.4,1.94"/>
  <path class="cls-1" d="M21.01,9.94l2.07,1.12c-.63.49-1.27.97-1.9,1.46"/>
  <path class="cls-1" d="M21.35,12.67l1.78,1.53c-.72.34-1.45.68-2.17,1.02"/>
  <path class="cls-1" d="M21.11,15.38l1.26,1.99c-.79.11-1.58.23-2.37.34"/>
  <path class="cls-1" d="M20.11,17.88l.9,2.17c-.8-.02-1.6-.04-2.4-.06"/>
  <path class="cls-1" d="M18.53,20.1l-.14,2.35c-.71-.37-1.42-.74-2.12-1.11"/>
  <path class="cls-1" d="M16.17,21.52l-.79,2.21c-.58-.55-1.15-1.1-1.73-1.66"/>
  <path class="cls-1" d="M13.51,22.06l-1.21,2.01c-.46-.66-.91-1.31-1.37-1.97"/>
  <path class="cls-1" d="M10.73,22.26l-1.79,1.52c-.22-.77-.44-1.54-.66-2.3"/>
  <path class="cls-1" d="M8.01,21.6l-2.09,1.08c-.04-.8-.09-1.6-.13-2.39"/>
  <path class="cls-1" d="M5.62,20.28l-2.35-.05c.34-.72.68-1.44,1.03-2.17"/>
  <path class="cls-1" d="M4.07,18.07l-2.32-.39c.44-.67.88-1.33,1.33-2"/>
  <path class="cls-1" d="M3.12,15.32l-2.13-1c.61-.52,1.21-1.04,1.82-1.56"/>
  <path class="cls-1" d="M2.85,12.5l-1.77-1.54c.72-.34,1.45-.67,2.17-1.01"/>
  <path class="cls-1" d="M3.23,9.85l-1.16-2.05c.8-.07,1.59-.15,2.39-.22"/>
  <path class="cls-1" d="M4.41,7.31l-.76-2.22c.8.07,1.59.14,2.39.22"/>
  <path class="cls-1" d="M6.03,5.12l.08-2.35c.72.35,1.43.7,2.15,1.06"/>
  <path class="cls-1" d="M8.26,3.68l.62-2.27c.62.51,1.23,1.02,1.85,1.52"/>
  <polyline class="cls-1" points="7.38 12.96 10.78 16.36 17.46 9.66"/>
</svg>