<?xml version="1.0" encoding="UTF-8"?>
<svg id="Layer_1" data-name="Layer 1" xmlns="http://www.w3.org/2000/svg" viewBox="0 0 24 24">
  <defs>
    <style>
      .cls-1 {
        fill: #ec2426;
      }

      .cls-1, .cls-2, .cls-3 {
        stroke: #ec2426;
        stroke-miterlimit: 10;
      }

      .cls-2 {
        stroke-linecap: round;
      }

      .cls-2, .cls-3 {
        fill: none;
        stroke-width: 2px;
      }
    </style>
  </defs>
  <path class="cls-3" d="m21.01,8.26c-.07-1.45-.4-2.74-1.47-3.8-1.06-1.06-2.35-1.39-3.8-1.47-1.5-.09-5.99-.09-7.49,0-1.45.07-2.74.4-3.8,1.46s-1.39,2.35-1.47,3.8c-.09,1.5-.09,5.99,0,7.49.07,1.45.4,2.74,1.47,3.8,1.07,1.06,2.35,1.39,3.8,1.47,1.5.09,5.99.09,7.49,0,1.45-.07,2.74-.4,3.8-1.47,1.06-1.06,1.39-2.35,1.47-3.8.09-1.5.09-5.99,0-7.48Z"/>
  <line class="cls-2" x1="3.18" y1="7.24" x2="20.42" y2="7.24"/>
  <line class="cls-2" x1="6.3" y1="3.59" x2="9.87" y2="7.16"/>
  <line class="cls-2" x1="12.79" y1="3.11" x2="16.92" y2="7.24"/>
  <path class="cls-1" d="m10.74,10.66l4.69,2.35c.49.24.49.94,0,1.18l-4.69,2.35c-.44.22-.95-.1-.95-.59v-4.69c0-.49.52-.81.95-.59Z"/>
</svg>