<?xml version="1.0" encoding="UTF-8"?>
<svg id="Layer_1" data-name="Layer 1" xmlns="http://www.w3.org/2000/svg" viewBox="0 0 24 24">
  <defs>
    <style>
      .cls-1 {
        stroke-linecap: round;
      }

      .cls-1, .cls-2 {
        fill: none;
        stroke: #131313;
        stroke-miterlimit: 10;
        stroke-width: 2px;
      }
    </style>
  </defs>
  <path class="cls-2" d="m21.01,8.26c-.07-1.45-.4-2.74-1.47-3.8-1.06-1.06-2.35-1.39-3.8-1.47-1.5-.09-5.99-.09-7.49,0-1.45.07-2.74.4-3.8,1.46s-1.39,2.35-1.47,3.8c-.09,1.5-.09,5.99,0,7.49.07,1.45.4,2.74,1.47,3.8,1.07,1.06,2.35,1.39,3.8,1.47,1.5.09,5.99.09,7.49,0,1.45-.07,2.74-.4,3.8-1.47,1.06-1.06,1.39-2.35,1.47-3.8.09-1.5.09-5.99,0-7.48Z"/>
  <g>
    <line class="cls-1" x1="6.78" y1="12" x2="17.22" y2="12"/>
    <line class="cls-1" x1="12" y1="17.22" x2="12" y2="6.78"/>
  </g>
</svg>