<?xml version="1.0" encoding="UTF-8"?>
<svg id="Layer_1" data-name="Layer 1" xmlns="http://www.w3.org/2000/svg" viewBox="0 0 24 24">
  <defs>
    <style>
      .cls-1 {
        fill: none;
        stroke: #fff;
        stroke-miterlimit: 10;
        stroke-width: 1.5px;
      }
    </style>
  </defs>
  <path class="cls-1" d="M21.07,12.01c0,2.5-1.01,4.77-2.66,6.41-1.64,1.65-3.91,2.66-6.41,2.66-1.68,0-3.26-.45-4.62-1.26-.26-.15-.56-.19-.84-.09l-2.79,1.04c-.32.12-.64-.2-.51-.52l1.05-2.74c.11-.28.07-.6-.08-.86-.81-1.36-1.28-2.95-1.28-4.64,0-2.51,1.02-4.78,2.66-6.42s3.92-2.66,6.42-2.66,4.77,1.02,6.41,2.66c1.65,1.64,2.66,3.91,2.66,6.42Z"/>
</svg>