<svg width="182" height="49" viewBox="0 0 182 49" fill="none" xmlns="http://www.w3.org/2000/svg">
<path fill-rule="evenodd" clip-rule="evenodd" d="M180.173 26.4689C180.379 25.5791 180.628 25.0501 181.174 25.0501C181.877 25.0501 182.111 25.8844 181.953 26.9648C181.295 31.4543 179.344 33.1604 176.957 33.1604C175.839 33.1604 172.632 32.6486 171.523 28.0748C170.705 24.6985 170.906 18.5252 170.996 16.6379C170.998 16.5867 170.925 16.3235 170.768 16.6574L170.734 16.7303C170.282 17.6904 169.143 20.1093 168.452 22.7795C167.367 26.9761 167.274 29.8967 167.327 30.3693C167.437 31.3388 166.21 31.4912 165.623 31.4912C164.7 31.4912 163.567 31.4191 162.65 29.8955C162.328 29.3628 161.91 27.6793 161.597 24.8314C161.187 21.1093 161.123 18.302 161.099 17.2181L161.096 17.0953C161.085 16.6103 160.777 16.6859 160.505 17.1442L160.463 17.2134C159.961 18.0548 158.961 19.7314 157.891 23.8744C157.384 25.8347 157.31 28.3179 157.251 30.2835V30.2837L157.251 30.2848L157.251 30.2861L157.251 30.2876L157.251 30.2894C157.233 30.8668 157.217 31.3994 157.192 31.8608C157.15 32.6349 156.84 32.9348 156.442 33.0104C155.868 33.1194 154.317 33.3701 152.796 32.84C152.452 32.7201 151.98 32.4721 151.899 32.2743C151.766 31.9513 151.681 30.9262 151.628 29.6725C150.348 32.5198 148.77 33.1604 147.107 33.1604C145.511 33.1604 142.724 32.1199 142.15 28.7518C142.15 28.7518 141.808 29.423 141.204 30.1994C138.53 33.6408 133.261 34.5197 130.536 30.4609C130.403 30.2631 130.282 30.0491 130.165 29.8278C129.2 31.8125 127.399 33.1491 125.516 33.1491C123.907 33.1491 121.194 32.1243 119.991 28.9391C118.258 24.3525 120.105 17.5001 120.268 16.8935L120.274 16.8711C120.37 16.5149 120.222 16.4157 119.705 16.4474C118.088 16.5469 116.574 16.5347 116.574 16.5347C115.681 19.1807 113.938 22.5808 112.312 25.1126C110.819 27.4356 109.198 29.4206 107.76 30.991C107.778 32.1678 107.799 33.2991 107.818 34.3336L107.818 34.3422L107.818 34.3459L107.818 34.3526C107.832 35.1091 107.846 35.8135 107.856 36.4457C107.917 40.1936 107.082 43.9884 105.806 45.7515C104.355 47.7546 101.993 49.186 99.2384 48.9804C96.6402 48.7867 93.2112 47.3088 93.5027 43.3323C93.7313 40.218 96.8364 37.543 100.927 34.0195L100.943 34.0049C101.873 33.2035 103.389 31.8972 103.389 31.8972L103.311 29.7594C103.216 29.8912 103.107 30.0377 102.982 30.1994C100.326 33.6461 95.0388 34.5197 92.3134 30.4609C92.1327 30.1919 91.9672 29.908 91.8156 29.6108C90.5217 32.3488 88.6756 33.1433 86.8876 33.1433C85.2912 33.1433 82.503 32.0062 82.1156 28.7518C82.1156 28.7518 81.9906 29.1345 81.1695 30.1994C78.5137 33.6461 73.2265 34.5197 70.5011 30.4609C69.9322 29.6134 69.4916 28.6116 69.194 27.4594C68.1572 30.2858 65.7863 33.1587 63.4217 33.1587C59.8847 33.1587 57.849 30.2276 57.3706 25.0472C54.6985 31.0454 50.8599 33.3707 46.068 33.22C44.8382 33.1814 42.9098 32.8411 42.0126 32.4657C40.9705 32.0295 39.9653 31.5307 40.2413 30.5874C40.525 29.6178 41.0219 28.8347 41.8907 28.219C42.2251 27.982 42.783 28.0498 43.1483 28.2757C43.4433 28.4582 43.6646 28.6158 43.8758 28.7663L43.8758 28.7663C44.1517 28.9627 44.4104 29.147 44.7934 29.3584C47.1138 30.638 48.4175 29.3215 48.7637 28.044C49.2164 26.373 48.5342 24.6116 46.4563 22.7579C45.8959 22.258 45.3353 21.7782 44.7985 21.3188L44.7983 21.3186L44.7982 21.3185L44.7981 21.3184L44.798 21.3183C44.4786 21.0449 44.1676 20.7787 43.8701 20.5199C42.726 22.3325 41.1336 24.8474 39.4935 27.4123C36.8628 31.5281 34.4087 33.154 32.6678 33.154C30.3922 33.154 28.7998 31.629 29.1315 23.4015C29.1968 21.7786 29.2789 20.0037 29.3495 18.4766L29.3495 18.4752L29.3496 18.4747L29.3496 18.4747C29.4127 17.11 29.4666 15.9434 29.4913 15.2601C29.503 14.9326 29.2586 14.9445 29.0445 15.1446C27.82 16.2892 25.2161 19.5122 23.2187 26.1179C22.1267 29.7292 21.9599 31.0909 21.8405 32.0649L21.8405 32.065C21.8197 32.2353 21.8002 32.3938 21.7776 32.5503C21.6507 33.428 19.2072 33.1331 18.761 33.0467C18.2818 32.9537 17.991 32.7283 17.7394 32.4328C17.4879 32.1368 17.2846 31.6392 17.159 31.0276C17.0331 30.4169 17 29.0205 17 27.8229L17.1074 12.0664C17.1074 11.5546 17.4007 11.2978 17.9879 11.2978C19.2205 11.2978 20.6069 11.8396 21.126 12.1045C21.4323 12.2607 21.5663 12.489 21.5663 12.7251L21.5004 22.7963C21.5004 22.7963 22.263 20.8729 22.6513 19.8173C25.7316 11.4423 28.9916 11.2978 30.1215 11.2978C30.8764 11.2978 32.1799 11.9925 32.7906 12.3459C33.7958 12.9275 34.3954 13.5696 34.3499 14.6968C34.3168 15.5191 34.2816 16.3347 34.2473 17.1296L34.2472 17.1334L34.2472 17.1338C34.1395 19.632 34.0405 21.9262 34.0405 23.5865V23.6858C34.0404 26.1966 34.0402 28.8393 34.9758 28.8393C36.0951 28.8393 37.556 26.4589 39.4632 23.3511L39.4632 23.3511L39.4639 23.35C39.5771 23.1656 39.6918 22.9786 39.8082 22.7894C40.5566 21.5726 41.4402 20.0037 42.0834 18.8384C41.9965 18.7442 41.9123 18.6506 41.8347 18.559C40.771 17.305 40.4814 16.0982 41.0244 14.4711C41.7251 12.3712 44.0746 10.4042 46.9241 11.0201C48.6487 11.3926 48.6183 13.0816 47.9157 14.558C46.9241 16.6423 45.806 17.6778 45.806 17.6778C47.7366 19.0205 49.462 20.2457 50.3361 20.8927C52.7085 22.6489 54.0255 24.7235 53.3808 27.4862C53.3808 27.4862 56.3831 25.2304 57.2354 21.0547C57.2339 20.82 57.2327 20.5783 57.2327 20.3274C57.2327 17.9675 57.3017 10.3245 57.3017 10.3245C56.6866 10.3071 55.9474 10.29 55.1956 10.2726L55.1953 10.2726C54.0541 10.2461 52.8842 10.219 52.0761 10.1895C50.9109 10.1477 51.8205 6.74085 52.6633 6.74085C53.1169 6.74085 54.1182 6.78251 55.1194 6.82417C56.1205 6.86583 57.1215 6.90748 57.5748 6.90748C57.5748 6.90748 57.6602 2.54973 57.8251 1.06196C57.9347 0.0816446 58.4953 -0.152746 59.731 0.0868792C60.6254 0.2602 61.38 0.420726 62.2234 0.756027L62.2518 0.767254C62.6022 0.905565 63.174 1.13131 63.1352 1.55895C63.0882 2.08618 62.8861 7.07702 62.8861 7.07702C62.8861 7.07702 65.1385 7.23377 65.9475 7.25092C66.9097 7.27012 69.3369 7.39167 69.6803 7.53039C70.438 7.8369 69.7307 10.3134 68.9966 10.3486C67.9347 10.3997 67.1193 10.4008 66.332 10.4019C66.0341 10.4024 65.7403 10.4028 65.4386 10.4059C65.0119 10.4105 62.8088 10.4457 62.8088 10.4457C62.75 11.1704 62.4022 18.6893 62.4022 23.9703C62.4022 27.9349 63.374 29.7952 64.3944 29.7952C66.1381 29.7952 68.2698 26.5978 68.7525 23.8232C68.7441 22.8464 68.8085 21.8009 68.9542 20.6848C69.4585 16.8223 70.4383 15.0774 71.6487 13.5036C73.5047 11.0899 75.9337 10.5016 78.2745 11.1547C79.1436 11.3967 80.4498 12.2316 81.262 13.4312V12.566C81.262 12.1906 81.6824 11.6872 82.2805 11.6456C82.7337 11.6139 83.3241 11.6686 84.0078 11.8172C84.6613 11.9597 86.0656 12.3444 86.077 13.1078C86.0784 13.2124 86.0686 13.467 86.0544 13.8333L86.0543 13.8368L86.0542 13.8372L86.0541 13.8407L86.0541 13.8411L86.054 13.8426C86.0345 14.3468 86.0068 15.0595 85.9888 15.8821C85.9707 16.7187 85.9462 17.4428 85.9217 18.1667V18.167V18.1671V18.1672V18.1673C85.8736 19.5889 85.8255 21.0101 85.8255 23.2817C85.8255 29.1595 86.7057 30.4454 88.2526 30.4454C89.4627 30.4454 90.5328 28.6372 90.905 26.9081C90.5601 25.181 90.5133 23.1313 90.7664 20.7191C91.0381 18.1309 91.9969 15.429 93.4609 13.5036C95.3033 11.0806 97.7459 10.5016 100.087 11.1547C100.956 11.3967 102.262 12.2316 103.074 13.4312C103.074 13.4312 103.074 12.7562 103.071 12.6463C103.056 12.0641 103.651 11.572 104.638 11.6442C105.421 11.7012 106.175 11.8646 106.813 12.1007C107.534 12.3677 107.881 12.5788 107.89 13.1369C107.891 13.2412 107.881 13.4892 107.867 13.8472V13.8472V13.8473V13.8475L107.867 13.8479L107.867 13.8491C107.847 14.3456 107.819 15.0531 107.801 15.8821C107.769 17.3408 107.696 21.3868 107.714 26.528C107.715 26.8892 107.717 27.2524 107.72 27.6153C108.481 26.6405 109.07 25.7236 109.84 24.4862C111.279 22.1766 112.672 18.9824 113.24 16.5367C113.24 16.5367 111.508 15.5951 111.788 13.5987C111.965 12.3406 112.432 11.641 113.117 11.0477C114.264 10.054 117.861 9.8016 117.474 12.9127C117.401 13.5059 117.311 13.8424 117.311 13.8424C118.798 13.6353 120.423 13.3657 121.56 13.1151C123.155 12.7635 124.266 13.0493 124.787 13.6089C125.355 14.219 125.581 14.8555 125.302 16.0714C125.186 16.581 125.07 17.0625 124.96 17.5257L124.959 17.5281L124.959 17.5291L124.959 17.5296L124.959 17.5297L124.959 17.5299C124.451 19.6572 124.034 21.3988 123.961 23.7045C123.826 27.9759 124.993 30.4454 126.602 30.4454C127.711 30.4454 128.724 29.5373 129.269 27.3207C128.818 25.3563 128.735 23.0336 128.989 20.7429C129.336 17.6098 130.219 15.429 131.683 13.5036C133.526 11.0806 135.969 10.5013 138.309 11.1547C139.178 11.3967 140.485 12.2316 141.297 13.4312C141.297 13.4312 141.293 12.8862 141.293 12.5992C141.293 12.0644 141.74 11.6759 142.37 11.6421C142.816 11.6183 143.386 11.6741 144.043 11.8172C144.696 11.9594 146.1 12.3441 146.112 13.1075C146.113 13.2129 146.103 13.4702 146.089 13.8403V13.8405V13.8406V13.8408V13.8409V13.8414C146.069 14.3455 146.042 15.0586 146.024 15.8818C146.005 16.7185 145.981 17.4427 145.956 18.1667C145.908 19.5886 145.86 21.0099 145.86 23.2817C145.86 29.1595 146.59 30.4454 148.137 30.4454C149.682 30.4454 151.103 27.3693 151.541 25.1033C151.54 24.855 151.54 24.6214 151.54 24.4071C151.54 20.0329 151.638 13.9896 151.66 12.6264L151.663 12.48L151.665 12.3465C151.665 11.7401 151.859 11.3243 152.651 11.3243C153.293 11.3243 154.805 11.6741 155.573 11.8832C155.743 11.93 156.309 12.1883 156.305 12.9633C156.297 15.0175 156.287 20.4332 156.287 20.4332C156.287 20.4332 156.776 19.0755 157.479 17.0683C158.343 14.5988 159.175 12.5154 159.893 11.7413C160.721 10.7947 163.023 11.5904 163.781 12.0402C164.95 12.7335 165.174 13.5804 165.181 14.5752C165.215 19.2234 165.466 21.6513 165.612 23.0558C165.626 23.1919 165.639 23.3184 165.651 23.4364C165.67 23.6382 165.783 23.6205 165.794 23.5341C166.004 21.8669 166.895 17.7622 169.174 12.5919C169.978 10.768 171.59 11.3182 172.704 11.6985L172.715 11.7023C175.305 12.5867 175.572 13.4847 175.52 14.3923C175.269 18.8097 175.237 23.2503 175.434 25.6625C175.684 28.7303 176.656 30.2625 177.739 30.2625C178.707 30.2625 179.458 29.564 180.173 26.4689ZM139.385 28.7467C140.06 27.3803 140.603 25.4431 140.717 22.965C140.947 17.9325 139.968 15.2109 137.875 15.0126C135.754 14.8119 134.472 17.0372 134.014 19.9838C133.563 22.8763 133.592 26.3381 134.219 28.4108C135.37 32.2132 138.079 31.3919 139.385 28.7467ZM103.517 37.5528C103.489 41.6774 102.86 45.2937 101.511 46.344C99.598 47.8334 97.0264 46.7162 97.5589 43.7065C98.03 41.0432 100.258 38.3233 103.522 35C103.522 35 103.529 35.7579 103.517 37.5528ZM102.151 28.743C102.78 27.4609 103.356 25.1919 103.475 22.9331C103.769 17.3288 102.739 15 100.65 15C98.5008 15 97.3042 17.5557 96.8106 20.3104C96.4302 22.4336 96.246 25.8032 97.0149 28.4069C98.1394 32.2174 100.853 31.39 102.151 28.743ZM81.3487 22.9111C81.2214 25.3028 80.7625 27.3022 80.0261 28.7545C78.6937 31.383 76.0577 32.2164 74.8952 28.4184C74.0571 25.6795 74.3424 21.9453 74.691 19.928C75.2084 16.9344 76.5039 14.8121 78.5264 15.0132C80.6039 15.2196 81.6138 17.9344 81.3487 22.9111ZM0.247929 10.7338C1.51318 5.64848 5.51929 1.59998 9.16339 0.165128C10.6876 -0.43512 13.9172 0.713266 13.94 1.80785C14.0186 5.59477 14.0009 11.5137 13.9912 14.7684C13.9895 15.349 13.988 15.8449 13.9873 16.2287C13.9869 16.4872 13.9865 16.764 13.9861 17.0557C13.9824 19.8835 13.9768 24.1243 13.875 26.8926C13.7818 29.426 13.2636 31.7588 11.7832 33.7013C10.5485 35.3209 8.4157 36.3259 7.91613 35.9034C7.6093 35.644 7.79142 35.1004 8.05443 34.3153C8.17443 33.9571 8.31126 33.5486 8.42618 33.094C8.7885 31.6619 8.99018 30.2127 8.99018 25.6234C8.99018 23.6636 9.0257 17.41 9.05569 12.13C9.07761 8.27241 9.09657 4.9345 9.09657 4.17025C9.09657 4.12546 9.09661 4.08157 9.09666 4.03864C9.09764 3.11132 9.09815 2.62802 8.62098 3.00384C5.93345 5.12034 3.79823 9.94401 4.28731 14.261C4.49217 16.07 5.12472 17.0038 5.55994 17.6463C5.92883 18.191 6.15594 18.5262 5.86063 19.0077C5.31371 19.8998 -1.35446 17.1754 0.247929 10.7338Z" fill="#262626"/>
</svg>
